<svg width="11" height="17" viewBox="0 0 11 17" fill="none" xmlns="http://www.w3.org/2000/svg">
<path id="Union" d="M6.63124 1.67176C6.80355 3.61666 7.56137 5.13727 8.54346 6.23138C9.22225 6.98746 10.0412 7.48253 11 7.71628V4.53033C9.7248 4.53033 8.7245 4.13512 8.00072 3.34498C7.27693 2.53452 6.63124 1.41831 6.63124 0L4.36876 0.0898707C4.36876 1.50819 3.72307 2.53452 2.99928 3.34498C2.2755 4.13512 1.2752 4.53033 0 4.53033V7.71628C0.958767 7.48253 1.77774 6.98746 2.45654 6.23138C3.43863 5.13727 4.19645 3.61666 4.36876 1.67176L4.21414 6.62649L4.21414 17H6.78586V6.62649L6.63124 1.67176Z" fill="black" fill-opacity="0.3"/>
</svg>
