<svg width="83" height="14" viewBox="0 0 83 14" fill="none" xmlns="http://www.w3.org/2000/svg">
<path id="Vector" fill-rule="evenodd" clip-rule="evenodd" d="M52.0983 0.127932C51.6477 0.327632 51.2544 0.9181 51.2544 1.39516C51.2544 1.84988 51.7098 2.49567 52.1627 2.6832C52.7377 2.92126 53.6387 2.66764 53.8909 2.19674C54.5578 0.950617 53.3604 -0.431413 52.0983 0.127932ZM30.6044 2.44975C30.6044 4.28973 30.4924 4.61024 30.004 4.16831C29.158 3.40279 27.0417 3.26735 25.6365 3.88895C24.6373 4.33088 23.5963 5.34555 23.0949 6.36624C22.7192 7.13145 22.668 7.41158 22.668 8.7027C22.668 10.0484 22.7098 10.2545 23.1721 11.1934C24.0633 13.0036 25.6379 13.9938 27.6052 13.9812C28.6981 13.9741 29.9599 13.5875 30.2099 13.183C30.3605 12.9395 30.6044 13.1265 30.6044 13.4853C30.6044 13.7548 30.7189 13.7844 31.7602 13.7844H32.916V7.23561V0.686814H31.7602H30.6044V2.44975ZM63.1205 2.53589C63.1205 3.55288 63.0923 4.38496 63.0576 4.38496C63.0231 4.38496 62.6272 4.1942 62.178 3.96121C61.0299 3.36566 59.4212 3.35965 58.1663 3.94658C55.4891 5.1984 54.3917 8.51055 55.7518 11.2336C56.1469 12.0246 57.1802 13.1104 57.8809 13.4712C59.3053 14.2043 61.1208 14.1727 62.4538 13.3916L63.1205 13.001V13.3927C63.1205 13.7796 63.1356 13.7844 64.3533 13.7844H65.5862V7.23561V0.686814H64.3533H63.1205V2.53589ZM67.8464 0.94368C67.7899 1.00008 67.7443 3.27105 67.7452 5.99011C67.7466 10.8527 67.7526 10.9465 68.1084 11.7105C68.7085 12.9992 69.7428 13.6907 71.3537 13.8799L72.2127 13.9809V13.114V12.2472L71.6077 12.1505C70.7904 12.0198 70.1272 11.5914 69.7938 10.9791C69.5669 10.5621 69.5083 10.0123 69.4653 7.89666L69.4131 5.32182L70.7743 5.27714L72.1356 5.23245V4.462V3.69156L70.7872 3.64703L69.4388 3.60249V2.31677C69.4388 1.11364 69.4164 1.02504 69.0921 0.93798C68.628 0.81363 67.9734 0.816556 67.8464 0.94368ZM3.52821 3.73794C1.75862 4.37017 0.626108 5.62076 0.157013 7.46074C-0.326105 9.35511 0.326837 11.441 1.82412 12.7872C3.24173 14.0616 5.35127 14.355 7.04873 13.5137L7.95101 13.0665V13.4254C7.95101 13.7715 7.99555 13.7844 9.18601 13.7844H10.4208L10.3803 8.73799L10.3396 3.69156L9.96547 3.63871C9.75959 3.60958 9.22207 3.63193 8.77116 3.68832C8.08616 3.77384 7.95101 3.84179 7.95101 4.10067C7.95101 4.27124 7.89893 4.38404 7.83543 4.35137C6.07633 3.44995 4.8307 3.27259 3.52821 3.73794ZM15.5792 3.59787C13.7141 4.10097 12.5885 5.18808 12.0477 7.0088C11.8617 7.63502 11.8036 8.53983 11.8036 10.8077V13.7844H13.0277H14.2517L14.299 10.6364C14.3508 7.18662 14.3755 7.09093 15.4074 6.32063C16.0016 5.87701 17.3186 5.8804 17.918 6.32726C18.8174 6.99755 18.8946 7.31174 18.98 10.6478L19.0583 13.7074L20.2165 13.7525L21.3746 13.7977L21.3278 10.3626C21.2842 7.14963 21.2584 6.88136 20.9297 6.21446C20.1687 4.67002 18.6698 3.64964 16.997 3.53731C16.4715 3.50203 15.8335 3.5293 15.5792 3.59787ZM37.6932 3.67692C36.6398 3.97462 36.0839 4.31269 35.4707 5.02905C34.5831 6.06592 34.457 6.74715 34.457 10.506V13.7974L35.6513 13.7524L36.8456 13.7074L36.9227 10.4715C36.9883 7.71175 37.04 7.17644 37.2728 6.83375C37.5373 6.44452 38.3717 5.99057 39.0031 5.89241C39.2796 5.84958 39.3113 5.72585 39.3113 4.69098V3.53747L38.849 3.50927C38.5947 3.4937 38.0746 3.56921 37.6932 3.67692ZM43.5383 3.66135C41.9522 4.11099 40.7326 5.15448 40.0495 6.64669C39.604 7.61976 39.5411 9.45312 39.9168 10.5176C40.4146 11.9279 41.579 13.0978 43.0869 13.7021C44.1762 14.1387 45.9107 14.0716 47.0782 13.5477C48.3055 12.9972 49.3964 11.8481 49.8567 10.6217C50.3164 9.39687 50.258 7.59511 49.7229 6.4946C48.6504 4.28866 45.8503 3.00586 43.5383 3.66135ZM51.4811 3.80173C51.4387 3.91221 51.4224 6.18611 51.4448 8.85494L51.4856 13.7074L52.6821 13.7524L53.8784 13.7975L53.8378 8.74446L53.7972 3.69156L52.6777 3.64625C51.8661 3.61343 51.5371 3.65612 51.4811 3.80173ZM72.8399 3.73008C72.8459 3.79372 73.7656 6.06453 74.8838 8.77651L76.9167 13.7074H77.9686H79.0204L81.0102 8.8024C82.1047 6.1046 83 3.83378 83 3.75597C83 3.54101 81.189 3.58215 81.0543 3.80019C80.9911 3.9022 80.3013 5.65311 79.5215 7.69095C78.7416 9.72878 78.0554 11.396 77.9967 11.396C77.938 11.396 77.2473 9.72524 76.462 7.68309C75.6766 5.64094 74.9846 3.89002 74.9241 3.79233C74.8035 3.5971 72.8219 3.53793 72.8399 3.73008ZM4.42895 5.93664C3.25097 6.40846 2.55735 7.42622 2.55735 8.68328C2.55735 9.62277 2.75784 10.1829 3.29921 10.7549C3.90546 11.3957 4.44667 11.6272 5.33878 11.6272C6.27713 11.6272 7.03856 11.301 7.5676 10.6724C7.9205 10.253 7.95101 10.0932 7.95101 8.66726V7.11789L7.40702 6.60493C6.6177 5.86052 5.33678 5.57314 4.42895 5.93664ZM26.8288 6.063C24.128 7.30943 24.6869 11.3535 27.5932 11.5945C28.6519 11.6823 29.3432 11.4449 29.9991 10.7683L30.5274 10.2233V8.67913V7.13484L29.9639 6.61864C29.0435 5.77515 27.8942 5.57145 26.8288 6.063ZM59.2993 6.09967C58.9352 6.27995 58.4738 6.64391 58.2742 6.90848C57.848 7.47353 57.5512 8.45523 57.6541 8.95972C57.6942 9.15557 57.7626 9.48794 57.806 9.69827C57.9054 10.177 58.712 11.1087 59.2831 11.4039C60.2979 11.9286 62.076 11.5265 62.7976 10.6091C63.075 10.2565 63.1205 9.98796 63.1205 8.70116C63.1205 7.3179 63.0911 7.17182 62.7358 6.7886C62.2424 6.25622 61.1908 5.77947 60.5007 5.77531C60.2041 5.77346 59.6635 5.91954 59.2993 6.09967ZM43.8585 6.17132C42.7106 6.66903 42.1623 7.4971 42.1623 8.73275C42.1623 10.3291 43.2803 11.508 44.8092 11.5239C45.9281 11.5355 46.715 11.1302 47.2798 10.2515C47.6797 9.62924 47.7261 9.43678 47.6766 8.60239C47.6324 7.85459 47.5294 7.53809 47.1824 7.08322C46.3987 6.0559 45.0059 5.67376 43.8585 6.17132Z" fill="#99CC00"/>
</svg>
